<svg xmlns="http://www.w3.org/2000/svg" style="display: none;">
    <!-- Ícone do Açaí -->
    <symbol id="acai-icon" viewBox="0 0 24 24">
        <circle cx="12" cy="12" r="10" fill="#4A0404"/>
        <path d="M12 6C8.5 6 6 8.5 6 12s2.5 6 6 6 6-2.5 6-6-2.5-6-6-6zm0 10c-2.2 0-4-1.8-4-4s1.8-4 4-4 4 1.8 4 4-1.8 4-4 4z" fill="#9D4EDD"/>
    </symbol>

    <!-- Ícone de Frutas -->
    <symbol id="frutas-icon" viewBox="0 0 24 24">
        <path d="M12 3c-4.4 0-8 3.6-8 8s3.6 8 8 8 8-3.6 8-8-3.6-8-8-8zm0 14c-3.3 0-6-2.7-6-6s2.7-6 6-6 6 2.7 6 6-2.7 6-6 6z" fill="#FF6B6B"/>
        <circle cx="12" cy="11" r="3" fill="#FF6B6B"/>
    </symbol>

    <!-- Ícone de Caldas -->
    <symbol id="caldas-icon" viewBox="0 0 24 24">
        <path d="M7 3v2h10V3H7zm0 4v12c0 1.1.9 2 2 2h6c1.1 0 2-.9 2-2V7H7zm2 2h6v8H9V9z" fill="#FFD93D"/>
    </symbol>

    <!-- Ícone de Crocantes -->
    <symbol id="crocantes-icon" viewBox="0 0 24 24">
        <path d="M12 2L8 6l4 4-4 4 4 4-4 4h8l4-4-4-4 4-4-4-4 4-4h-8z" fill="#6C4A4A"/>
    </symbol>

    <!-- Ícone de Cremes -->
    <symbol id="cremes-icon" viewBox="0 0 24 24">
        <path d="M12 2C8.13 2 5 5.13 5 9c0 2.38 1.19 4.47 3 5.74V17c0 1.1.9 2 2 2h4c1.1 0 2-.9 2-2v-2.26c1.81-1.27 3-3.36 3-5.74 0-3.87-3.13-7-7-7z" fill="#FFECB3"/>
    </symbol>
</svg>